PathFileType	4	(X/Y/Z)	C:\Users\dbl\Desktop\LZH\BX\Trimmed_Trimmed_bx_y_5_501.trc
DataRate	CameraRate	NumFrames	NumMarkers	Units	OrigDataRate	OrigDataStartFrame	OrigNumFrames
50.00	50.00	       4	43	mm	50.00	220	       438
Frame#	Time	Top.Head			R.Acromium			L.Acromium			Sternum			R.ASIS			L.ASIS			V.Sacral			R.Thigh.Upper			R.Thigh.Front			R.Thigh.Rear			R.Knee.Lat			R.Knee.Med			R.Shank.Upper			R.Shank.Front			R.Shank.Rear			R.Ankle.Lat			R.Midfoot.Lat			R.Toe.Lat			R.Toe.Tip			R.Toe.Med			R.Ankle.Med			R.Midfoot.Sup			R.Heel			L.Thigh.Upper			L.Thigh.Front			L.Thigh.Rear			L.Knee.Lat			L.Knee.Med			L.Shank.Upper			L.Shank.Front			L.Shank.Rear			L.Ankle.Lat			L.Midfoot.Lat			L.Toe.Lat			L.Toe.Tip			L.Toe.Med			L.Ankle.Med			L.Midfoot.Sup			L.Heel			origin1 front left			origin2 front right			origin 3 back right			origin 4 back leftt			
		X1	Y1	Z1	X2	Y2	Z2	X3	Y3	Z3	X4	Y4	Z4	X5	Y5	Z5	X6	Y6	Z6	X7	Y7	Z7	X8	Y8	Z8	X9	Y9	Z9	X10	Y10	Z10	X11	Y11	Z11	X12	Y12	Z12	X13	Y13	Z13	X14	Y14	Z14	X15	Y15	Z15	X16	Y16	Z16	X17	Y17	Z17	X18	Y18	Z18	X19	Y19	Z19	X20	Y20	Z20	X21	Y21	Z21	X22	Y22	Z22	X23	Y23	Z23	X24	Y24	Z24	X25	Y25	Z25	X26	Y26	Z26	X27	Y27	Z27	X28	Y28	Z28	X29	Y29	Z29	X30	Y30	Z30	X31	Y31	Z31	X32	Y32	Z32	X33	Y33	Z33	X34	Y34	Z34	X35	Y35	Z35	X36	Y36	Z36	X37	Y37	Z37	X38	Y38	Z38	X39	Y39	Z39	X40	Y40	Z40	X41	Y41	Z41	X42	Y42	Z42	X43	Y43	Z43	

220	4.380	-626.81671	258.59396	1824.99048	-604.43640	69.34917	1514.89001	-598.10510	455.59821	1519.75476	-541.26398	271.95691	1367.92151	-613.08087	150.93011	1061.50500	-613.63562	404.89767	1069.78259	-816.72266	260.79834	1016.93317	-632.57855	97.00600	903.89508	-591.25073	161.10132	847.97095	-681.83521	93.50517	752.34827	-690.64771	126.27144	603.67633	-666.26532	232.03050	560.07306	-719.21655	125.50594	539.14807	-634.21619	171.68552	547.16895	-751.73010	129.81439	469.26529	-690.10107	145.16354	212.56459	-615.07617	80.17142	165.63684	-569.79932	55.00401	163.65512	-492.28751	98.05614	163.57391	-530.97955	147.43188	167.40211	-636.12280	217.59137	221.51950	-592.45337	188.58037	174.65460	-716.62213	214.44588	168.54959	-636.47186	443.78949	884.07739	-587.88995	383.16504	842.17438	-678.68207	448.18307	752.73755	-699.44275	420.09232	626.18939	-659.31757	315.95547	581.15527	-701.70239	415.81592	562.06555	-646.39587	375.71881	545.60425	-749.10760	420.60364	506.55801	-683.54547	418.19324	211.34511	-583.43616	469.58932	164.40518	-543.34900	477.71982	159.83510	-479.34821	427.61130	166.67334	-524.86145	389.06067	178.04530	-646.78333	330.91794	209.23578	-595.75031	349.90933	171.59721	-733.15472	347.56924	164.34674	-443.70273	449.09967	146.85318	-450.55771	75.27757	144.65112	-806.26691	82.50475	142.69093	-799.17334	458.10880	144.59723	
221	4.400	-634.93109	258.51987	1826.83508	-610.06207	69.47652	1517.00061	-603.24854	455.65652	1522.06726	-543.30823	272.14294	1370.72107	-610.16632	150.70908	1061.82214	-610.97937	405.21912	1070.19348	-814.52252	260.42242	1017.05347	-629.88922	97.52245	903.44385	-588.09589	161.13715	848.11005	-679.22430	93.39450	752.53070	-689.07184	126.03088	603.86835	-665.10657	231.86728	560.23199	-718.04858	125.19146	539.34351	-633.06195	171.52852	547.14191	-750.80426	129.56140	469.56152	-690.00800	145.08891	212.59576	-615.12622	80.10412	165.66093	-569.80872	54.95987	163.65112	-492.26163	98.01987	163.64458	-530.99310	147.31641	167.50180	-636.11694	217.63580	221.25673	-592.30835	188.38661	174.88687	-716.59546	214.43593	168.56987	-633.84424	443.57849	884.27051	-585.24786	383.24551	842.32709	-675.96594	447.30814	752.53168	-697.60394	419.92874	626.48535	-657.43488	315.83493	581.33344	-700.08246	415.65057	562.31677	-644.81244	375.56064	545.63544	-747.73956	420.28210	507.01007	-683.44415	418.16443	211.54044	-583.45990	469.60968	164.40147	-543.36279	477.75174	159.87274	-479.40250	427.77692	166.63690	-524.85260	389.23572	178.18942	-646.54010	330.83862	209.32895	-595.82178	349.97873	171.58110	-733.09113	347.53354	164.32051	-443.70334	449.10254	146.86620	-450.55737	75.27612	144.65950	-806.25891	82.49676	142.69177	-799.25183	457.96085	144.55267	
222	4.420	-642.66803	258.34796	1828.46350	-615.43414	69.57549	1518.92334	-608.21564	455.73837	1524.22070	-545.26459	272.32013	1373.37708	-607.37482	150.47151	1062.10168	-608.42993	405.36844	1070.60730	-812.28809	260.12091	1017.12488	-627.43359	97.98103	902.94666	-584.83392	160.88722	848.52289	-676.83356	93.27216	752.72894	-687.64569	125.76268	604.04181	-664.05872	231.69611	560.34918	-717.00555	124.88711	539.52454	-632.06256	171.40811	547.09735	-749.99377	129.29782	469.83191	-689.93213	144.97192	212.62279	-615.20270	79.99765	165.66475	-569.83020	54.90321	163.65063	-492.24023	97.97139	163.72720	-531.03351	147.16278	167.63145	-636.05536	217.60156	221.08806	-592.15625	188.19231	175.11601	-716.61615	214.39877	168.60365	-631.29944	443.34042	884.40881	-582.71179	383.25348	842.42755	-673.29785	446.46490	752.29205	-695.78278	419.81424	626.73676	-655.68042	315.73630	581.49402	-698.46521	415.57703	562.53479	-643.27734	375.41135	545.61719	-746.36102	420.07410	507.42398	-683.29486	418.18341	211.73357	-583.48718	469.63385	164.39925	-543.38617	477.79532	159.93663	-479.48215	427.93649	166.61403	-524.88550	389.39523	178.31485	-646.12262	330.60934	209.67281	-595.86182	350.04877	171.60159	-733.01068	347.51541	164.29935	-443.69495	449.10040	146.88133	-450.55756	75.27535	144.65625	-806.24097	82.49740	142.68954	-799.28851	457.89896	144.54446	
223	4.440	-650.02563	258.12219	1829.89612	-620.56915	69.66250	1520.67944	-613.00031	455.84103	1526.22131	-547.14001	272.47128	1375.91711	-604.64917	150.20781	1062.37292	-605.98969	405.43066	1071.08630	-809.94000	259.91925	1017.10895	-625.04578	98.24138	902.56140	-581.50684	160.38916	849.15662	-674.62769	93.13498	752.94696	-686.32471	125.47565	604.19995	-663.07379	231.52078	560.43341	-716.04468	124.60391	539.69965	-631.17566	171.31802	547.04169	-749.26398	129.02730	470.09082	-689.87195	144.82097	212.64514	-615.31177	79.85323	165.62617	-569.86530	54.83186	163.64839	-492.22446	97.91257	163.81813	-531.09814	146.96803	167.79901	-635.92627	217.48288	221.02391	-592.04205	188.04066	175.28027	-716.69885	214.32661	168.65279	-628.76459	443.11575	884.49561	-580.22510	383.18427	842.50677	-670.70819	445.73212	752.09546	-693.93713	419.73700	626.94073	-654.03143	315.65268	581.62567	-696.81586	415.57520	562.71301	-641.76208	375.27740	545.54846	-744.93854	419.97183	507.79553	-683.09686	418.21518	211.90549	-583.51251	469.65158	164.40195	-543.41760	477.85303	160.03214	-479.57138	428.08521	166.61176	-524.94330	389.52661	178.42046	-645.55182	330.23489	210.21042	-595.86377	350.10092	171.63556	-732.93060	347.50778	164.28650	-443.67584	449.09167	146.89622	-450.55688	75.27519	144.64368	-806.21643	82.50542	142.68710	-799.29480	457.91431	144.55872	
